<?xml version="1.0" encoding="iso-8859-1"?>
<!-- Generator: Adobe Illustrator 19.0.0, SVG Export Plug-In . SVG Version: 6.00 Build 0)  -->
<svg version="1.1" id="Layer_1" xmlns="http://www.w3.org/2000/svg" xmlns:xlink="http://www.w3.org/1999/xlink" x="0px" y="0px"
	 viewBox="0 0 512 512" style="enable-background:new 0 0 512 512;" xml:space="preserve">
<g>
	<g>
		<path d="M420.623,119.215c-0.105-20.974-17.254-38.037-38.229-38.037h-16.558c-12.771,33.362-10.857,28.363-20.027,52.318
			l4.721-22.242c0.331-1.562,0.09-3.191-0.678-4.59l-6.484-11.793l5.764-10.484c0.859-1.562-0.273-3.478-2.057-3.478h-15.821
			c-1.781,0-2.916,1.914-2.057,3.478l0.089,0.162c9.883,8.474,11.134,24.217-0.026,34.232l-13.361,11.994l-2.381,10.118
			c7.592,0,60.947,0,68.033,0v-21.273c0-1.821,1.442-3.317,3.263-3.383c1.82-0.066,3.368,1.321,3.499,3.138c0,0.001,0,0.001,0,0.001
			l0.108,21.516h32.314L420.623,119.215z"/>
	</g>
</g>
<g>
	<g>
		<path d="M295.666,81.179c-20.975,0-38.125,17.063-38.23,38.037l-0.114,21.678h9.947l6.429-27.307
			c1.054-4.476,3.452-8.52,6.873-11.592l23.094-20.815H295.666z"/>
	</g>
</g>
<g>
	<g>
		<path d="M339.166,3.545c-18.491,0-33.481,14.99-33.481,33.481c0,18.522,15.041,33.481,33.481,33.481
			c18.311,0,33.481-14.841,33.481-33.481C372.647,18.534,357.657,3.545,339.166,3.545z"/>
	</g>
</g>
<g>
	<g>
		<path d="M412.853,158.902H295.405c4.678-19.87,2.795-11.874,8.321-35.343l16.955-15.222c3.701-3.322,4.007-9.015,0.686-12.714
			c-3.322-3.7-9.015-4.008-12.714-0.685l-19.058,17.108c-1.369,1.228-2.329,2.846-2.749,4.637
			c-5.905,25.081-4.757,20.205-9.939,42.221h-11.405c-6.559,0-12.225,3.764-14.994,9.243c-2.769-5.479-8.436-9.243-14.994-9.243
			H118.066c4.678-19.87,2.795-11.874,8.321-35.343l16.955-15.222c3.701-3.322,4.006-9.015,0.686-12.714
			c-3.322-3.7-9.015-4.008-12.714-0.685l-19.057,17.108c-1.369,1.228-2.329,2.846-2.749,4.637
			c-5.905,25.081-4.757,20.205-9.939,42.221H88.161c-9.282,0-16.807,7.524-16.807,16.807v3.471c0,9.282,7.524,16.807,16.807,16.807
			l9.742,77.942c22.838,6.49,39.617,27.52,39.617,52.409c0,7.653-1.593,14.937-4.453,21.552c14.164,1.936,26.764,8.918,35.909,19.08
			c9.199-10.221,21.894-17.224,36.16-19.111c-2.851-6.605-4.438-13.88-4.438-21.519c0-18.836,9.608-35.466,24.178-45.256
			l10.636-85.095c6.558,0,12.225-3.764,14.994-9.243c2.77,5.479,8.436,9.243,14.994,9.243l9.742,77.942
			c22.838,6.49,39.617,27.52,39.617,52.409c0,7.653-1.593,14.937-4.453,21.552c14.164,1.936,26.764,8.918,35.909,19.08
			c9.199-10.221,21.894-17.224,36.16-19.111c-2.851-6.611-4.438-13.884-4.438-21.524c0-18.836,9.608-35.466,24.178-45.256
			l10.636-85.095c9.282,0,16.807-7.524,16.807-16.807v-3.471C429.66,166.426,422.135,158.902,412.853,158.902z"/>
	</g>
</g>
<g>
	<g>
		<path d="M511.983,406.248c-0.104-20.257-16.92-36.983-37.427-36.983h-84.322c-13.516,0-25.392,7.291-31.898,18.143
			c-3.312,5.522-5.493,11.964-5.528,18.841v102.206h31.414v-102.05c0.009-1.673,1.625-3.023,3.297-3.018
			c1.672,0.005,3.024,1.362,3.024,3.033v102.035h83.196V405.88c0-1.819,1.474-3.295,3.295-3.295c1.819,0,3.455,1.473,3.455,3.294
			c0,0.171,0.012,0.346,0,0.528c0.048,9.481-0.049,92.15,0,102.049h31.494C511.925,496.924,512.041,417.793,511.983,406.248z"/>
	</g>
</g>
<g>
	<g>
		<path d="M432.527,293.784c-17.97,0-32.553,14.563-32.553,32.553c0,17.973,14.57,32.553,32.553,32.553
			c18.01,0,32.553-14.594,32.553-32.553C465.08,308.387,450.54,293.784,432.527,293.784z"/>
	</g>
</g>
<g>
	<g>
		<path d="M159.175,405.998c-0.103-20.257-16.92-36.983-37.427-36.983H37.426c-13.516,0-25.392,7.291-31.898,18.143
			C2.216,392.68,0.035,399.122,0,405.999v102.206h31.414v-102.05c0.009-1.673,1.625-3.023,3.297-3.018
			c1.672,0.004,3.024,1.362,3.024,3.033v102.035h83.196V405.63c0-1.819,1.474-3.295,3.295-3.295c1.819,0,3.455,1.473,3.455,3.294
			c0,0.171,0.011,0.346,0,0.528c0.048,9.481-0.05,92.15,0,102.049h31.494C159.117,496.675,159.233,417.543,159.175,405.998z"/>
	</g>
</g>
<g>
	<g>
		<path d="M79.719,293.535c-17.97,0-32.553,14.563-32.553,32.553c0,17.973,14.57,32.553,32.553,32.553
			c18.01,0,32.553-14.594,32.553-32.553C112.272,308.137,97.731,293.535,79.719,293.535z"/>
	</g>
</g>
<g>
	<g>
		<path d="M243.284,119.215c-0.105-20.974-17.254-38.037-38.229-38.037h-16.558c-12.771,33.362-10.858,28.363-20.027,52.318
			l4.721-22.242c0.331-1.562,0.09-3.191-0.678-4.59l-6.484-11.793l5.764-10.484c0.859-1.562-0.273-3.478-2.057-3.478h-15.821
			c-1.781,0-2.916,1.914-2.057,3.478l0.089,0.162c9.883,8.474,11.134,24.217-0.026,34.232l-13.361,11.994l-2.381,10.118
			c7.592,0,60.947,0,68.033,0v-21.273c0-1.821,1.442-3.317,3.263-3.383c1.82-0.066,3.368,1.321,3.499,3.138c0,0.001,0,0.001,0,0.001
			l0.108,21.516h32.314L243.284,119.215z"/>
	</g>
</g>
<g>
	<g>
		<path d="M118.327,81.179c-20.975,0-38.125,17.063-38.23,38.037l-0.114,21.678h9.947l6.429-27.307
			c1.054-4.476,3.452-8.52,6.873-11.592l23.094-20.815H118.327z"/>
	</g>
</g>
<g>
	<g>
		<path d="M161.827,3.545c-18.491,0-33.481,14.99-33.481,33.481c0,18.522,15.041,33.481,33.481,33.481
			c18.311,0,33.482-14.841,33.482-33.481C195.309,18.534,180.319,3.545,161.827,3.545z"/>
	</g>
</g>
<g>
	<g>
		<path d="M334.643,406.248c-0.103-20.257-16.92-36.983-37.427-36.983h-84.322c-13.516,0-25.392,7.291-31.898,18.143
			c-3.312,5.522-5.493,11.964-5.528,18.841v102.206h31.414v-102.05c0.009-1.673,1.625-3.023,3.297-3.018
			c1.672,0.005,3.024,1.362,3.024,3.033v102.035h83.196V405.88c0-1.819,1.475-3.295,3.295-3.295c1.819,0,3.454,1.473,3.456,3.294
			c0,0.171,0.011,0.346,0,0.528c0.048,9.481-0.05,92.15,0,102.049h31.494C334.586,496.924,334.701,417.793,334.643,406.248z"/>
	</g>
</g>
<g>
	<g>
		<path d="M255.189,293.784c-17.97,0-32.553,14.563-32.553,32.553c0,17.973,14.57,32.553,32.553,32.553
			c18.009,0,32.553-14.594,32.553-32.553C287.741,308.387,273.201,293.784,255.189,293.784z"/>
	</g>
</g>
<g>
</g>
<g>
</g>
<g>
</g>
<g>
</g>
<g>
</g>
<g>
</g>
<g>
</g>
<g>
</g>
<g>
</g>
<g>
</g>
<g>
</g>
<g>
</g>
<g>
</g>
<g>
</g>
<g>
</g>
</svg>
