<?xml version="1.0" encoding="iso-8859-1"?>
<!-- Generator: Adobe Illustrator 16.0.0, SVG Export Plug-In . SVG Version: 6.00 Build 0)  -->
<!DOCTYPE svg PUBLIC "-//W3C//DTD SVG 1.1//EN" "http://www.w3.org/Graphics/SVG/1.1/DTD/svg11.dtd">
<svg version="1.1" id="Capa_1" xmlns="http://www.w3.org/2000/svg" xmlns:xlink="http://www.w3.org/1999/xlink" x="0px" y="0px"
	 width="34.796px" height="34.796px" viewBox="0 0 34.796 34.796" style="enable-background:new 0 0 34.796 34.796;"
	 xml:space="preserve">
<g>
	<path d="M19.856,34.796c0,0-1.198-0.822-1.391-0.974c-0.192-0.148-0.241-0.546-0.241-0.546s-2.602,0.387-2.545,0.18
		c0.057-0.208,0.096-0.354,0.096-0.354s-3.35,0.063-3.133-0.222c0.217-0.283,0.447-0.584,0.447-0.584s-1.281,0.456-1.072-0.003
		s0.536-1.177,0.536-1.177s-1.51,0.573-1.072-0.029c0.438-0.604,2.142-4.737,2.142-4.737s-0.592-0.229-0.284-0.719
		c0.19-0.303,2.401-4.759,2.609-5.44c0.207-0.683-2.587-2.248-2.725-4.064c-0.139-1.817,1.092-2.522,1.071-4.556
		c-0.014-1.369-0.276-2.945-0.524-3.083c-1.092,0.462-1.485-0.043-1.485-0.043s-1.669,0.889-1.831,1.205
		c-0.057,0.112,0.041,0.681,0.201,1.377c0.109,0.478,0.131,1.068,0.269,1.561c0.229,0.821,0.571,1.464,0.656,1.541
		c0.21,0.192,1.41,0.17,1.505,0.181c0.095,0.012-0.025,0.386-0.289,0.396c-0.264,0.01-0.503-0.04-0.621,0.206
		c-0.117,0.246,0.6,1.826,0.686,2.062c0.085,0.235-0.235,0.278-0.235,0.278l0.011,0.146c0,0-0.15,0.185-0.3,0.131
		c-0.149-0.054-0.139-0.131-0.139-0.131s-0.15,0.094-0.203,0c-0.054-0.095-0.738-1.303-0.738-1.303l0.32,0.941
		c0,0-0.209,0.152-0.299-0.021c-0.091-0.175-0.532-1.038-0.689-1.252c-0.156-0.214-0.053-1.021-0.134-1.246
		c-0.08-0.225-1.948-4.573-1.831-5.258c0.051-0.302,2.591-2.289,2.591-2.289s-0.586-0.817-0.313-0.895
		c0.272-0.076,1.116-0.312,1.116-0.312s0.677-0.713,1.161-0.759c0.483-0.047,1.439-0.214,1.438-0.393
		c-0.387-0.146-0.623-0.254-0.634-0.725c-0.01-0.47-0.031-1.111,0.357-1.474c-0.078-0.494-0.03-1.285,0.491-1.563
		c0.521-0.278,0.715,0.179,0.715,0.179s0.919-0.978,1.786-1.027c0.866-0.05,1.277,0.66,1.429,0.805
		c0.764,0.729-0.349,2.975-0.498,3.264c-0.15,0.289-0.137,1.196,0.07,1.471c0.206,0.273,1.041,1.538,1.411,1.875
		s0.804,0.735,0.982,0.894c0.178,0.157-0.492,0.67-0.492,0.67s0.506,0.481,0.492,1.429c-0.016,0.947-0.207,1.204-0.85,1.92
		c-0.386-1.229,0.192-1.722-0.045-2.68c-0.189,1.215-0.689,1.119-0.832,1.536c-0.364,1.069-0.368,2.114-0.388,2.512
		c-0.02,0.398-0.196,1.473-0.238,1.982c-0.041,0.51,0.391,1.539,1.041,2.193c0.571,0.572,5.328,4.749,5.688,5.086
		c0.358,0.336-1.385,1.474-1.385,1.474s2.377,5.453,2.456,5.806c0.079,0.354-1.026,0.58-1.026,0.58s0.18,0.291,0.269,0.492
		c0.089,0.2-1.92,0.356-1.92,0.356s-0.104,0.267,0,0.536c0.104,0.271-1.607,0.09-1.607,0.09s-0.047-0.047,0.19,0.42
		s-2.021,0.167-2.021,0.167s-0.106,0.284,0.185,0.621c0.292,0.336,0.557,0.642,0.557,0.642s0.064,0.651-0.277,0.651
		C20.176,34.796,19.856,34.796,19.856,34.796z"/>
</g>
<g>
</g>
<g>
</g>
<g>
</g>
<g>
</g>
<g>
</g>
<g>
</g>
<g>
</g>
<g>
</g>
<g>
</g>
<g>
</g>
<g>
</g>
<g>
</g>
<g>
</g>
<g>
</g>
<g>
</g>
</svg>
