<svg xmlns="http://www.w3.org/2000/svg" width="1200" height="800" viewBox="-15.11535 -26.34175 130.9997 158.0505"><defs><clipPath clipPathUnits="userSpaceOnUse" id="a"><path d="M0 0h595.276v841.89H0z"/></clipPath><clipPath clipPathUnits="userSpaceOnUse" id="b"><path d="M0 0h595.276v841.89H0z"/></clipPath><clipPath clipPathUnits="userSpaceOnUse" id="c"><path d="M0 0h595.276v841.89H0z"/></clipPath></defs><g clip-path="url(#a)" transform="matrix(.342 0 0 -.342 -19.39 138.74)"><path d="M137.191 206.457c-6.455 0-11.716-5.491-11.716-12.246 0-6.883 5.084-12.264 11.557-12.264 6.473 0 11.565 5.367 11.565 12.179.073 3.24-1.043 6.31-3.166 8.653-2.156 2.37-5.078 3.678-8.24 3.678" fill="#ed1d24"/></g><path d="M24.358 104.826h6.217V78.61l-6.217 1.074z" fill="#ed1d24"/><g clip-path="url(#b)" transform="matrix(.342 0 0 -.342 -17.964 138.74)"><path d="M91.66 113.624c-1.79-1.332-5.448-2.481-9.437-2.481-7.307 0-10.6 5.943-10.473 12.858.124 5.72 3.491 12.225 12.625 12.225h7.285zm-7.51 63.556c-8.683 0-16.488-2.593-24.508-6.83l-2.05-1.11 4.883-11.535 2.763 1.378c5.671 2.689 11.731 4.498 17.172 4.257 6.575-.282 9.285-3.483 9.285-10.161v-3.915H80.912c-17.313 0-28.093-9.72-28.387-24.797 0-14.348 11.28-26.69 26.984-26.69 12.667 0 23.387 4.346 30.627 12.02v40.912c0 19.928-13.434 26.47-25.987 26.47m193.477-14.927c8.073 0 9.264-9.285 9.264-15.051h-19.677c.315 7.416 3.237 15.05 10.413 15.05m3.932-50.974c-4.982 0-8.35 1.739-10.557 4.248-3.261 3.756-4.724 11.437-4.325 19.609h39.198v1.919c-.346 27.164-9.087 39.53-28.248 39.53-21.366 0-29.69-20.818-29.856-40.371-.131-12.36 4.272-24.832 12.342-31.916 4.915-4.328 11.709-6.713 19.595-6.713 4.31 0 8.784.657 12.89 2.017 7.86 2.572 13.67 7.03 13.67 7.03l-5.134 11.17c-.926-.735-8.77-6.523-19.575-6.523m-125.08 50.798l-.02-62.974h18.538v59.282c2.417 2.494 7.547 4.692 12.426 4.893 4.516.194 7.441-.809 7.441-.809l5.131 12.186c-1.986 1.046-6.735 2.321-12.254 2.321-7.964 0-20.23-2.466-31.262-14.899M344.4 111.231c-7.556.615-9.14 4.127-9.14 9.981v75.842l-18.228-3.293v-71.294c0-16.893 8.674-24.143 23.17-24.143 3.1 0 6.966.771 6.966.771v12.097s-1.721-.049-2.767.04m-115.015 85.717l-18.635-3.173v-71.644c0-16.041 8.854-23.645 23.698-23.645 3.572 0 6.922.717 6.922.717v11.918c-.202.02-1.569.02-2.622.064-7.83.286-9.363 4.862-9.363 10.13v40.314h11.985v14.15h-11.985z" fill="#ed1d24"/></g><g clip-path="url(#c)" transform="matrix(2.18866 0 0 -2.18866 -253.19 1313.215)"><path d="M137.006 574.404c1.567.598 2.811 1.43 4.01 2.234l.326.214c1.27.847 2.51 1.837 3.785 3.017 2.822 2.613 4.516 5.177 5.486 8.306.396 1.273.95 3.745.27 6.067a7.838 7.838 0 01-2.877 4.136c-.162.144-1.917 1.63-5.23 1.63-3.03 0-6.35-1.236-9.87-3.68l-.11-.075-.018-.012a8.332 8.332 0 01-.314-.212 2.347 2.347 0 00-.272-.19 20.376 20.376 0 01-2.045-1.676c-1.487-1.523-3.183-4.068-3.079-6.233.045-.915.407-1.665 1.075-2.221.6-.497 1.353-.749 2.235-.749 1.802 0 3.778 1.038 5.13 1.916.085.065.17.128.257.183.237.164.47.329.707.499l.23.166c1.92 1.362 3.91 2.774 6.147 3.596.583.212 1.091.311 1.557.311.231 0 .458-.02.674-.076a2.107 2.107 0 001.477-1.217c.517-1.124.394-2.89-.312-4.509-.964-2.202-2.62-4.377-4.918-6.457-1.174-1.061-2.255-1.88-3.218-2.432l-.087-.05c-.45-.263-.956-.559-1.492-.77l-.073-.029c-.158-.063-.294-.121-.419-.163-2.248-.637-.879 1.46-.879 1.46.495.622 1 1.124 1.536 1.647.303.303.617.614.934.951l.07.077c.392.416.931.984.9 1.799-.048 1.087-1.084 1.765-2.064 1.794h-.07c-.939 0-1.829-.586-2.412-1.073a8.33 8.33 0 01-1.615-1.931c-.597-1.005-1.857-3.57-.629-5.618.491-.818 1.31-1.234 2.435-1.234.785 0 1.713.202 2.762.604" fill="#ed1d24"/></g></svg>