<svg xmlns="http://www.w3.org/2000/svg" height="800" width="1200" xml:space="preserve" id="Layer_1" version="1.1" viewBox="-30 -50 260 300"><style id="style3735" type="text/css">.st0{fill:#fff}.st1{fill:#ffcb05}</style><g id="g3757"><g id="g3741"><path id="rect3737" class="st0" d="M0 0h200v200H0z"/><path id="rect3739" class="st1" d="M9.75 9.73h180.52v180.52H9.75z"/></g><g id="g3745"><path id="path3743" d="M184.62 99.47c0 19.27-37.88 34.89-84.6 34.89-46.73 0-84.61-15.62-84.61-34.89 0-19.27 37.88-34.88 84.61-34.88 46.72 0 84.6 15.61 84.6 34.88" fill="#00678f"/></g><g id="g3755"><path id="polygon3747" class="st0" d="M68.54 81.8v20.32l9.19-20.32h14.43l-8.74 34.89h-9.19l5.24-22.52-10.93 22.52h-7.42V94.17l-5.7 22.52h-9.61l8.75-34.89z"/><path id="polygon3749" fill="#ed1d24" d="M106.36 112.27l-1.32 4.86H94.99l1.31-4.86z"/><path id="polygon3751" class="st0" d="M136.3 81.8l4.38 18.56 4.8-18.56h9.18l-8.74 34.89h-9.62l-4.81-18.99-4.81 18.99h-9.18l8.74-34.89z"/><path id="polygon3753" class="st1" d="M101.99 90.64l-4.95 19.17h10.05l4.96-19.17h9.18l2.18-8.84H94.99l-2.19 8.84z"/></g></g></svg>