<svg xmlns="http://www.w3.org/2000/svg" height="800" width="1200" viewBox="-44.7 -40.826 387.4 244.956"><defs><clipPath clipPathUnits="userSpaceOnUse" id="a"><path d="M55.36 702.312h98.302v53.869H55.36z"/></clipPath></defs><g clip-path="url(#a)" transform="matrix(3.0315 0 0 -3.0315 -167.824 2292.362)" fill="#e21836"><path d="M55.36 702.611h2.203v4.374c0 .78 0 1.74.399 2.303.397.612 1.11.811 1.508.811 1.856 0 1.856-2.188 1.856-2.948v-4.54h2.202v4.97c0 .714 0 2.253-.844 3.263-.761.93-1.972 1.28-2.766 1.28-1.393 0-2.155-.766-2.519-1.114v.798H55.36v-9.197"/><path d="M73.547 706.223a5.3 5.3 0 01.132 1.11c0 2.317-1.84 4.84-4.756 4.84-2.834 0-4.838-2.389-4.838-4.989 0-2.683 2.121-4.872 4.855-4.872 2.154 0 3.91 1.54 4.44 3.197h-2.32c-.414-.762-1.142-1.175-2.12-1.175-1.574 0-2.436 1.292-2.536 1.89zm-7.209 1.773c.414 1.707 1.79 2.154 2.602 2.154 1.094 0 2.236-.679 2.485-2.154h-5.087" fill-rule="evenodd"/><path d="M76.507 702.611h1.356l1.74 5.964h.033l1.725-5.964h1.358l3.363 9.197H83.73l-1.692-5.618h-.032l-1.493 5.618h-1.754l-1.508-5.618h-.033l-1.673 5.618h-2.353z"/><path d="M90.347 702.611h2.02v1.11c.545-.614 1.327-1.409 3.1-1.409 3.362 0 4.572 3.098 4.572 4.94 0 2.432-1.822 4.871-4.622 4.871-1.028 0-2.106-.383-2.868-1.146v3.895h-2.202zm2.069 4.721c0 1.342 1.044 2.767 2.734 2.767 1.393 0 2.686-1.075 2.686-2.867 0-1.787-1.21-2.899-2.652-2.899-1.292 0-2.768.961-2.768 3m17.91 4.475h-2.023v-1.163h-.033c-.067.134-1.178 1.479-3.048 1.479-2.551 0-4.607-2.039-4.607-4.858 0-3.064 2.105-4.954 4.475-4.954 1.158 0 2.518.615 3.213 1.439v-1.14h2.023zm-2.087-4.576c0-1.706-1.162-2.898-2.687-2.898-1.573 0-2.734 1.276-2.734 2.833 0 1.375.928 2.932 2.734 2.932 1.31 0 2.687-.96 2.687-2.867" fill-rule="evenodd"/><path d="M113.7 714.872h-2.203v-12.261h2.203z"/><path d="M124.071 711.808h-2.02v-1.163h-.035c-.067.134-1.178 1.479-3.048 1.479-2.554 0-4.607-2.039-4.607-4.858 0-3.064 2.105-4.954 4.474-4.954 1.16 0 2.517.615 3.215 1.439v-1.14h2.021zm-2.088-4.576c0-1.706-1.159-2.898-2.684-2.898-1.575 0-2.734 1.276-2.734 2.833 0 1.375.928 2.932 2.734 2.932 1.31 0 2.684-.96 2.684-2.867" fill-rule="evenodd"/><path d="M125.244 702.611h2.202v4.374c0 .78 0 1.74.4 2.303.396.612 1.111.811 1.507.811 1.855 0 1.855-2.188 1.855-2.948v-4.54h2.205v4.97c0 .714 0 2.253-.847 3.263-.762.93-1.97 1.28-2.766 1.28-1.393 0-2.153-.766-2.519-1.114v.798h-2.037v-9.197m15.998 2.999c-.58-.928-1.308-1.276-2.037-1.276-1.659 0-2.768 1.309-2.768 2.883 0 1.889 1.326 2.883 2.667 2.883 1.36 0 1.874-.878 2.138-1.341h2.487c-.945 2.834-3.466 3.365-4.625 3.365-2.535 0-4.87-2.058-4.87-4.872 0-3.05 2.532-4.94 4.888-4.94 2.154 0 3.86 1.244 4.607 3.298h-2.487"/><path d="M153.53 706.223c.065.297.131.68.131 1.11 0 2.317-1.838 4.84-4.754 4.84-2.834 0-4.839-2.389-4.839-4.989 0-2.683 2.121-4.872 4.855-4.872 2.153 0 3.911 1.54 4.44 3.197h-2.319c-.415-.762-1.142-1.175-2.12-1.175-1.576 0-2.437 1.292-2.534 1.89zm-7.208 1.773c.415 1.707 1.79 2.154 2.601 2.154 1.095 0 2.237-.679 2.485-2.154h-5.086m-53.459 25.099l-2.945-5.086-16.3.917 1.631 2.833zm11.784 16.206l1.477-5.613-23.13 1.52 1.631 2.832zm-15.334 6.88l13.54-.01 1.021-3.838-16.19 1.016zm-1.19-31.335l-2.35-4.042-16.844-.018 1.631 2.83zm29.571 10.905l-4.077-7.067h3.883c1.8 0 5.023.898 6.015 3.46.92 2.38-.77 3.61-1.949 3.61zm3.888 6.76l3.387.02c2.254.013 4.605 1.044 5.465 3.136.793 1.94-.273 3.594-1.686 3.588l-3.276.004zm-15.33 1.177l3.42 5.933 11.574.743.404.72-10.707.749 2.504 4.348h19.856c6.106 0 10.623-2.182 8.867-8.602-.528-1.945-3.01-6.841-10.289-8.892 1.545-.184 5.393-1.89 4.73-6.31-1.178-7.837-11.326-11.568-16.97-11.57l-23.443-.011-1.155 4.535 12.278.866.417.718-13.317.81-1.435 5.377 18.95 1.106.411.712-34.043 2.148 1.631 2.83 36.644 2.38.415.713-10.743.697" fill-rule="evenodd"/></g></svg>