<svg xmlns="http://www.w3.org/2000/svg" height="800" width="1200" viewBox="-11.0763 -3.10265 95.9946 18.6159"><path d="M58.204.0138c-.226 0-.4134.1984-.8048.2136-.4175.0152-4.7046.044-4.7046.044s-.583.0566-.7841.1654c-.2012.109-.2012.1227-.2012.1227s-.288-.4313-.7193-.4313a.6727.6727 0 00-.1158.011c-.4947.0882-.5402.1474-1.0514.1777-.1144.007-.3652.01-.6863.01-1.1038 0-3.0413-.0345-3.2095-.0703-.1626-.033-.3596-.1254-.5195-.1254-.0537 0-.102.01-.1447.0358-.1708.1048-.5512.4314-.6656.6808-.0469.102-.0703.1364-.0882.1364-.0248 0-.0358-.0717-.0813-.1102-.0772-.0661-.1433-.5499-1.108-.6615-.2314-.0276-.514-.0427-.817-.0427-.9578 0-2.1291.1571-2.6211.6119 0 0-.3555.401.3555.9053 0 0 .4493.175.4493 1.1948 0 1.0197-.0317 3.4547-.062 3.689-.0317.2343-.062.9591-.4176.9894 0 0-.01.003-.0262.003-.0854 0-.3624-.0565-.4534-.7579-.1075-.8337-.27-1.7942-1.2678-2.1084 0 0-.2935-.0455-.2935-.27 0-.2247.1116-.2123.2026-.255.0909-.0427.988-.4506.9729-1.7253-.0165-1.2747-1.0832-2.114-2.4433-2.1897 0 0-1.9251.0303-2.2227.0455-.08.004-.204.006-.3473.006-.3914 0-.9247-.0138-1.079-.0358-.0565-.008-.1805-.0193-.3349-.0193-.4134 0-1.05.0827-1.2416.5291 0 0-.1778.39.1543.5705.3321.1792.634.4796.634 1.035 0 .554-.0456 4.1685-.0456 4.1685s-.0813.7345-.5884 1.0046c0 0-.638.3872-.0868.8985 0 0 .2109.4065 1.9885.4217 0 0 .0717.003.1874.003.459 0 1.6192-.0524 1.8535-.5733 0 0 .124-.4534-.2012-.638-.3238-.186-.4727-.6133-.4727-.8269s.04-1.3987.04-1.3987.003-.2604.2674-.2604c.022 0 .0469.001.073.005.3362.0524.5912.044.7827.6298.1916.5842.3307 1.5447.5306 1.9499.186.372.4795 1.1892 2.0463 1.1892.1378 0 .2853-.007.4438-.0207 0 0 .6642-.1047.8034-.2246.0978-.0841.1447-.131.1846-.131.0152 0 .0303.008.047.0263.0564.0606.2659.215 1.8244.2287h.0661c1.5145 0 2.2214-.4464 2.1456-.9784 0 0 0-.2907-.3706-.4506-.3721-.1585-.5265-.5168-.5265-.8806s-.062-3.9784.1544-4.4868c.1405-.3308.3665-.525.4823-.525.0634 0 .0937.0578.0593.1832-.0992.3542-.3707 1.181.1543 1.5613.1089.0786.2274.1103.3473.1103.463 0 .9605-.4796 1.0597-.6711.1213-.2302.379-.6918.7-.6918a.321.321 0 01.0428.003s.011-.004.0289-.004c.0689 0 .237.0565.2494.6036.0152.689-.1916 3.908-.1916 4.0638 0 .1557-.055.4354-.4203.6298-.3652.1956-.7937.4203-.5787.8406.197.3858.8281.66 2.439.66.1434 0 .2936-.001.452-.006 0 0 .0566.003.1517.003.4382 0 1.6936-.0648 1.9347-.7923 0 0 .0124-.4369-.3128-.5857-.3252-.1475-.7042-.434-.7042-.8089 0-.3762.0427-4.1024.0427-4.1024s0-.4865.248-.5168a.9578.9578 0 01.1172-.008c.193 0 .3418.0648.3928.2026.062.1653.379.7951.7689 1.0583.102.0675.2315.1006.368.1006.383 0 .8226-.255.8778-.6628l.0124-.3308s.01-.0717.073-.0717a.152.152 0 01.0496.011c.1074.0455.0772.124.0772.2054 0 .0799.1157 2.8057-.062 4.2044 0 0-.0772.7193-.3253.8847-.2466.1653-.5153.2094-.5567.5842 0 0-.0152.4507.649.4961.1213.007.3625.011.6794.011.605 0 1.4842-.0124 2.322-.0234.8379-.0124 1.6344-.0234 2.0726-.0234.1612 0 .2756.001.3225.006.3707.0303.4478.0152.6035.0441.0813.0166.1337.0427.193.0427.0538 0 .1143-.0207.208-.0868.2012-.1433.8048-1.0928.882-2.264 0 0-.113-.674-.5719-.6863h-.0124c-.4534 0-.7317.7344-.7455.7992-.0138.0661-.0854.6063-1.0983.8007 0 0-.4396.0606-1.4717.0606 0 0-.0165.003-.0427.003-.1158 0-.4286-.0592-.4796-.6932-.062-.78-.0455-1.4841.1695-1.6192.0882-.055.2494-.0978.4162-.0978.2439 0 .4974.091.543.368.0771.4643.124.7234.3403.8116a.4298.4298 0 00.157.0317c.2578 0 .6395-.259.74-1.6977 0 0 .0924-1.8755-.6807-2.0106 0 0-.0234-.005-.0606-.005-.1185 0-.3817.069-.4644.6656 0 0 .0606.5705-.3403.6146-.1378.0152-.2743.029-.397.029-.2383 0-.423-.0483-.4533-.2233-.0468-.2646 0-1.5145 0-1.5145s-.0317-.4658.8034-.5402h.0634c.2219 0 .9674.011 1.323.1502.4189.164.5002.3748.6393.5691.113.1599.1875.3845.532.3845.0772 0 .1653-.011.2714-.0358 0 0 .4948-.299.31-1.2457-.186-.9467-.5112-1.2472-.7578-1.2775-.0152-.001-.0303-.003-.0455-.003M35.3837 3.9227c-.4575 0-.288-.3252-.288-.4245 0-.1047.0868-1.4538.0868-1.4538s-.0551-.4685.4272-.4685c.022 0 .044.001.0675.003.554.0455.813.6683.711 1.3794-.1033.7124-.3404.915-.9122.9605a1.031 1.031 0 01-.0923.004M3.4407.0629c-.4079 0-.8516.0717-1.283.2866C.9232.9641.1598 1.9385.3182 3.2241.4766 4.5112 1.7595 5.396 2.4926 5.6384c.7332.244 1.5517.4396 1.5669.995.0124.4327-.5678.6077-1.0143.6077-.1267 0-.2425-.0152-.3307-.04-.401-.1185-.9922-.2687-1.4263-1.0639-.3775-.6931-.6394-.8158-.8006-.8158a.3098.3098 0 00-.0648.007c-.1502.029-.5057.0937-.4051.9895.1006.8957.394 1.6495.7345 1.83.2425.1282 1.294.5995 2.6665.5995.5443 0 1.1396-.0744 1.7542-.2743 0 0 1.6853-.4988 1.9485-2.4267 0 0 .3087-1.615-1.3146-2.4143 0 0-.6174-.3128-1.5916-.598-.9743-.2853-.8971-.8145-.8834-.9247.0138-.1103.0951-.3087.3886-.4727l.1847-.0124s.0358-.004.0965-.004c.2177 0 .7607.0482 1.1713.4892.514.5512.8062.8654 1.1659.8654.008 0 .0165-.001.0248-.001.3707-.0152.8116-.3597.6614-1.17C6.8734.995 6.1472.3804 6.055.3501 5.9915.3294 5.884.2812 5.7834.2812c-.0469 0-.0909.01-.131.0386-.0757.0551-.1887.0868-.3293.0868-.0896 0-.1901-.0124-.3004-.0413-.1832-.0496-.82-.3018-1.582-.3018m5.814.062c-.0882 0-.182.001-.2784.003 0 0-1.5765.1282-1.87.7221l-.0689.0992s-.1171.2963.2081.525c.3238.2288.525.2853.5402.7952.0152.5099-.0455 4.1093-.0455 4.1093s-.0165.6477-.3252.9012c0 0-.2508.1323-.35.193-.0978.0592-.299.1653-.2536.5098.0469.3445.43.645 1.4442.7648a5.408 5.408 0 00.6325.0358c.8048 0 1.5558-.1667 1.8562-.3803.379-.2701.412-.8268.1185-.9757-.2935-.1474-.4175-.5098-.4327-.7648-.0152-.255 0-1.2595 0-1.2595s.011-.3293.6022-.39c.237-.0234.4754-.0303.6753-.0303.3004 0 .5154.0152.5154.0152s.3706.0758.3555.4052c-.0152.3307-.102 1.1548-.1695 1.418-.0675.2618-.2012.4864-.379.6063-.1777.1199-.3486.2853-.27.6532.0771.3666.536.6821 1.6067.722.1227.004.2467.006.3693.006.9412 0 1.8204-.1405 2.0891-.525.3032-.4354 0-.7648-.1846-.8254-.186-.0593-.4892-.2246-.4341-.9522.0565-.7276.062-3.6353.1709-4.2513.1075-.6173.2163-.525.332-.6297.1158-.1048.3928-.1571.419-.6298.0262-.4561-.5388-.842-1.965-.842-.0538 0-.1062 0-.1627.001-1.5448.0303-2.158.3748-2.0712.8696.0868.496.2784.492.4258.5856.1461.0937.2233.39.2384.5995.0165.2094.047.9742.047.9742s-.0153.346-.4024.3914c-.0882.01-.2136.0138-.3528.0138-.463 0-1.0845-.044-1.0845-.044s-.3087-.0676-.3253-.3198c-.0152-.2508.0166-1.1506.062-1.2554.047-.1047.1916-.3004.4024-.4644.2109-.1653.4424-.4051.3404-.7359C11.1826.458 10.8133.126 9.2547.126m10.7928.0124c-.6477 0-1.1314.1075-1.1314.1075l-.1226.044c-1.447.4796-2.1015 1.305-2.1015 1.305-1.4676 1.7846-.9826 3.8986-.9826 3.8986.5802 2.49 2.5163 3.0468 2.5163 3.0468.6436.2219 1.2279.3114 1.7515.3114 2.0188 0 3.1185-1.3187 3.1185-1.3187 1.9982-1.9334 1.0473-4.294 1.0473-4.294-.6435-1.8797-2.0257-2.5894-2.0257-2.5894-.6435-.4078-1.4345-.5112-2.0698-.5112M19.2579 2s.1268-.0537.317-.0537c.3307 0 .8502.1626 1.214 1.0584.5719 1.4097.9122 3.1791.339 3.7634-.2054.2108-.4465.3073-.6877.3073-.4272 0-.853-.3032-1.0776-.802-.3528-.78-1.141-2.5494-.6311-3.7827 0 0 .248-.401.4175-.4755.0661-.0289.0965-.0386.1103-.0386.022 0-.001.0234-.001.0234M28.9789.254c-.4988 0-.9274.0773-1.1865.0966-.6187.0455-2.056.0896-2.056.0896s-.0648-.0524-.4175-.0524c-.0703 0-.1516.003-.248.008-.572.0289-.9427.1667-.973.569-.0317.4025.3239.4493.649.5844.324.135.4052.4658.4052.4658l-.0965 4.8727c-.0689.5554-.3404.645-.6339.7869-.2935.1391-.2315.4327-.2315.4327.1516.6752 1.5682.7372 2.0795.7372.113 0 .1819-.003.1819-.003.0593.001.1171.003.175.003 1.4387 0 1.8548-.4685 1.8672-.7772.0138-.3197-.1144-.3927-.4189-.5347-.306-.1392-.4065-.5994-.4065-.5994v-1.254c.0303-.0841.1212-.1089.2301-.1089.1392 0 .3073.0413.419.0565.0674.01.168.0124.2742.0124.2108 0 .4368-.0124.4368-.0124 1.717-.1075 2.2517-1.0032 2.5053-1.3174.2535-.3156.897-2.1305-.3252-3.255-.7084-.6531-1.538-.8006-2.2297-.8006m-.729 4.0115c-.124 0-.226-.0165-.288-.0317-.2618-.0592-.2315-.2701-.2315-.2701l.0303-2.2035s-.0772 0 .0317-.1088c.0758-.0772.339-.0882.485-.0882.0607 0 .102.001.102.001 1.006.1805.9591 1.3945.9591 1.3945-.0482 1.1176-.6793 1.3064-1.0886 1.3064m24.6776 6.1613c-.3528 0-.7304.1847-.7304.5733 0 .3555.2935.463.583.5374.2866.0744.58.1089.58.3142 0 .193-.23.2357-.3803.2357-.23 0-.4327-.0992-.4327-.35h-.4147c-.006.4657.3982.6738.831.6738.5305 0 .8116-.2604.8116-.6077 0-.43-.4369-.5181-.5788-.5526-.4906-.1213-.583-.1405-.583-.2866 0-.1585.1586-.2136.295-.2136.2053 0 .372.0579.3858.2852h.4162c0-.4368-.3748-.609-.7827-.609m-1.8728 0c-.605 0-.9605.4368-.9605 1.0004 0 .5457.3556.984.9605.984.1888 0 .3859-.0718.536-.2605l.0442.215h.2728v-1.024h-.82v.3101h.4314c-.0248.2632-.186.408-.4644.408-.3858 0-.5305-.3184-.5305-.6326 0-.3321.1447-.6504.5305-.6504.2026 0 .3638.1088.4134.3183h.4093c-.0469-.43-.423-.6684-.8227-.6684m-8.6086 0c-.6036 0-.9591.4369-.9591 1.0005 0 .5457.3555.984.9591.984.605 0 .9605-.4383.9605-.984 0-.5636-.3555-1.0005-.9605-1.0005m0 1.633c-.3844 0-.5305-.3183-.5305-.6325 0-.3321.146-.6504.5305-.6504.3859 0 .5306.3183.5306.6504 0 .3142-.1447.6325-.5306.6325m16.174-1.5875h-.842v1.8934h.842c.5967 0 .8861-.4092.8861-.9577 0-.6284-.379-.9357-.886-.9357m-.412 1.5434v-1.1934h.3058c.4272 0 .5637.244.5637.6257 0 .4189-.2384.5677-.4865.5677h-.383m-.6533-1.5434H55.955v.35h.5857v1.5434h.4286v-1.5434h.5856v-.35m-2.3357 0h-.4286v1.8934h1.3808v-.35h-.9522v-1.5434m-5.4171 0h-.4024v1.2692h-.006l-.8144-1.2692h-.4272v1.8934h.4024v-1.2678h.006l.8116 1.2678h.43v-1.8934m-2.0257 0h-.43v1.8934h.43zm-1.6137 0h-.842v1.8934h.842c.5953 0 .886-.4092.886-.9577 0-.6284-.3803-.9357-.886-.9357m-.4134 1.5434v-1.1934h.3059c.4272 0 .5636.244.5636.6257 0 .4189-.237.5677-.4864.5677h-.3831m-1.6206-1.5434h-.43v1.8934h1.3808v-.35h-.9508v-1.5434m-2.9352 0h-.4286v.7262h-.791v-.7262h-.4286v1.8934h.4286v-.8171h.791v.8171h.4286v-1.8934M73.842 0H60.4447v12.3968H73.842zm0 0" fill="#211e1e"/><path d="M73.5553 12.0978H60.7851V.3101h12.7702zm0 0" fill="#fff"/><path d="M61.0827 3.5898l.0262-.0262s-.4051-2.6762 4.9789-2.65h.4327v1.1052c-.2977.0386-.6036.1158-.904.2563-1.3092.6146-2.118 1.589-1.95 2.8746.1682 1.2857 1.5283 2.1704 2.3041 2.413.7773.2439 1.6454.4396 1.662.9935.0165.5554-1.0005.6863-1.4263.5678-.4258-.1185-1.0528-.2674-1.5117-1.0625-.459-.7937-.758-.8392-.9178-.8089-.1598.0289-.536.0937-.43.9894.1062.8958.4176 1.6482.7786 1.8287.2316.1157 1.1548.5057 2.395.5857v1.0693h-1.5957s-3.6256-.0262-3.8695-2.3096zM67.7648.9136h.4768c5.384-.0262 4.9775 2.1512 4.9775 2.1512l.0275.1584.0275 6.193c-.244 2.2833-3.8695 2.3095-3.8695 2.3095h-1.6399v-1.1065a6.2764 6.2764 0 001.0473-.2233s1.786-.4975 2.0643-2.4253c0 0 .328-1.6137-1.3918-2.4144 0 0-.656-.3128-1.6881-.598-1.0335-.2839-.9509-.813-.937-.9233.0151-.1103.1005-.3087.412-.4727l.197-.0124s.7869-.0786 1.3436.4851c.5567.5636.8682.8792 1.2623.864.3927-.0152.8599-.3596.7-1.17-.1598-.8088-.9301-1.4234-1.028-1.4538-.0992-.0303-.2949-.1198-.4258-.0303-.131.091-.3693.1213-.6683.0455-.1254-.0317-.4534-.1474-.8875-.226zm0 0" fill="#eb1923"/></svg>